HIERARCHY
ROOT Hips
{
	OFFSET -14.64140 90.27770 -84.91600
	CHANNELS 6 Xposition Yposition Zposition Zrotation Xrotation Yrotation
	JOINT Spine
	{
		OFFSET 0.00000 13.20850 -1.60436
		CHANNELS 3 Zrotation Xrotation Yrotation
		JOINT Spine1
		{
			OFFSET 0.00000 8.61716 0.00000
			CHANNELS 3 Zrotation Xrotation Yrotation
			JOINT Spine2
			{
				OFFSET 0.00000 8.61717 0.00000
				CHANNELS 3 Zrotation Xrotation Yrotation
				JOINT Spine3
				{
					OFFSET 0.00000 8.61717 0.00000
					CHANNELS 3 Zrotation Xrotation Yrotation
					JOINT Neck
					{
						OFFSET 0.00000 11.07920 1.10792
						CHANNELS 3 Zrotation Xrotation Yrotation
						JOINT Neck1
						{
							OFFSET 0.00000 7.08032 0.00000
							CHANNELS 3 Zrotation Xrotation Yrotation
							JOINT Head
							{
								OFFSET 0.00000 7.08031 0.00000
								CHANNELS 3 Zrotation Xrotation Yrotation
								End site
								{
									OFFSET 0.00000 0.00000 0.00000
								}
							}
						}
					}
					JOINT RightShoulder
					{
						OFFSET -0.01000 7.91373 5.19711
						CHANNELS 3 Zrotation Xrotation Yrotation
						JOINT RightArm
						{
							OFFSET -18.41580 0.00000 0.00000
							CHANNELS 3 Zrotation Xrotation Yrotation
							JOINT RightForeArm
							{
								OFFSET -29.11090 0.00000 0.00000
								CHANNELS 3 Zrotation Xrotation Yrotation
								JOINT RightHand
								{
									OFFSET -24.65040 0.00000 0.00000
									CHANNELS 3 Zrotation Xrotation Yrotation
									JOINT RightHandThumb1
									{
										OFFSET -5.35114 -0.85590 3.97906
										CHANNELS 3 Zrotation Xrotation Yrotation
										JOINT RightHandThumb2
										{
											OFFSET -4.52789 0.00000 0.00000
											CHANNELS 3 Zrotation Xrotation Yrotation
											JOINT RightHandThumb3
											{
												OFFSET -2.46976 0.00000 0.00000
												CHANNELS 3 Zrotation Xrotation Yrotation
												End site
												{
													OFFSET 0.00000 0.00000 0.00000
												}
											}
										}
									}
									JOINT RightHandIndex1
									{
										OFFSET -14.26970 0.00000 2.88139
										CHANNELS 3 Zrotation Xrotation Yrotation
										JOINT RightHandIndex2
										{
											OFFSET -5.48836 0.00000 0.00000
											CHANNELS 3 Zrotation Xrotation Yrotation
											JOINT RightHandIndex3
											{
												OFFSET -3.01859 0.00000 0.00000
												CHANNELS 3 Zrotation Xrotation Yrotation
												End site
												{
													OFFSET 0.00000 0.00000 0.00000
												}
											}
										}
									}
									JOINT RightHandMiddle1
									{
										OFFSET -14.26970 0.00000 -0.09147
										CHANNELS 3 Zrotation Xrotation Yrotation
										JOINT RightHandMiddle2
										{
											OFFSET -6.17441 0.00000 0.00000
											CHANNELS 3 Zrotation Xrotation Yrotation
											JOINT RightHandMiddle3
											{
												OFFSET -3.56743 0.00000 0.00000
												CHANNELS 3 Zrotation Xrotation Yrotation
												End site
												{
													OFFSET 0.00000 0.00000 0.00000
												}
											}
										}
									}
									JOINT RightHandRing1
									{
										OFFSET -12.69180 0.00000 -3.06433
										CHANNELS 3 Zrotation Xrotation Yrotation
										JOINT RightHandRing2
										{
											OFFSET -5.62556 0.00000 0.00000
											CHANNELS 3 Zrotation Xrotation Yrotation
											JOINT RightHandRing3
											{
												OFFSET -3.56744 0.00000 0.00000
												CHANNELS 3 Zrotation Xrotation Yrotation
												End site
												{
													OFFSET 0.00000 0.00000 0.00000
												}
											}
										}
									}
									JOINT RightHandPinky1
									{
										OFFSET -11.11390 0.00000 -6.03719
										CHANNELS 3 Zrotation Xrotation Yrotation
										JOINT RightHandPinky2
										{
											OFFSET -4.52789 0.00000 0.00000
											CHANNELS 3 Zrotation Xrotation Yrotation
											JOINT RightHandPinky3
											{
												OFFSET -2.46976 0.00000 0.00000
												CHANNELS 3 Zrotation Xrotation Yrotation
												End site
												{
													OFFSET 0.00000 0.00000 0.00000
												}
											}
										}
									}
								}
							}
						}
					}
					JOINT LeftShoulder
					{
						OFFSET 0.01000 7.91373 5.19711
						CHANNELS 3 Zrotation Xrotation Yrotation
						JOINT LeftArm
						{
							OFFSET 18.41580 0.00000 0.00000
							CHANNELS 3 Zrotation Xrotation Yrotation
							JOINT LeftForeArm
							{
								OFFSET 29.11090 0.00000 0.00000
								CHANNELS 3 Zrotation Xrotation Yrotation
								JOINT LeftHand
								{
									OFFSET 24.65040 0.00000 0.00000
									CHANNELS 3 Zrotation Xrotation Yrotation
									JOINT LeftHandThumb1
									{
										OFFSET 5.35114 -0.85590 3.97906
										CHANNELS 3 Zrotation Xrotation Yrotation
										JOINT LeftHandThumb2
										{
											OFFSET 4.52789 0.00000 0.00000
											CHANNELS 3 Zrotation Xrotation Yrotation
											JOINT LeftHandThumb3
											{
												OFFSET 2.46977 0.00000 0.00000
												CHANNELS 3 Zrotation Xrotation Yrotation
												End site
												{
													OFFSET 0.00000 0.00000 0.00000
												}
											}
										}
									}
									JOINT LeftHandIndex1
									{
										OFFSET 14.26970 0.00000 2.88139
										CHANNELS 3 Zrotation Xrotation Yrotation
										JOINT LeftHandIndex2
										{
											OFFSET 5.48836 0.00000 0.00000
											CHANNELS 3 Zrotation Xrotation Yrotation
											JOINT LeftHandIndex3
											{
												OFFSET 3.01859 0.00000 0.00000
												CHANNELS 3 Zrotation Xrotation Yrotation
												End site
												{
													OFFSET 0.00000 0.00000 0.00000
												}
											}
										}
									}
									JOINT LeftHandMiddle1
									{
										OFFSET 14.26970 0.00000 -0.09147
										CHANNELS 3 Zrotation Xrotation Yrotation
										JOINT LeftHandMiddle2
										{
											OFFSET 6.17440 0.00000 0.00000
											CHANNELS 3 Zrotation Xrotation Yrotation
											JOINT LeftHandMiddle3
											{
												OFFSET 3.56744 0.00000 0.00000
												CHANNELS 3 Zrotation Xrotation Yrotation
												End site
												{
													OFFSET 0.00000 0.00000 0.00000
												}
											}
										}
									}
									JOINT LeftHandRing1
									{
										OFFSET 12.69180 0.00000 -3.06433
										CHANNELS 3 Zrotation Xrotation Yrotation
										JOINT LeftHandRing2
										{
											OFFSET 5.62556 0.00000 0.00000
											CHANNELS 3 Zrotation Xrotation Yrotation
											JOINT LeftHandRing3
											{
												OFFSET 3.56744 0.00000 0.00000
												CHANNELS 3 Zrotation Xrotation Yrotation
												End site
												{
													OFFSET 0.00000 0.00000 0.00000
												}
											}
										}
									}
									JOINT LeftHandPinky1
									{
										OFFSET 11.11390 0.00000 -6.03719
										CHANNELS 3 Zrotation Xrotation Yrotation
										JOINT LeftHandPinky2
										{
											OFFSET 4.52789 0.00000 0.00000
											CHANNELS 3 Zrotation Xrotation Yrotation
											JOINT LeftHandPinky3
											{
												OFFSET 2.46976 0.00000 0.00000
												CHANNELS 3 Zrotation Xrotation Yrotation
												End site
												{
													OFFSET 0.00000 0.00000 0.00000
												}
											}
										}
									}
								}
							}
						}
					}
					JOINT pCube4
					{
						OFFSET 0.00000 10.91090 1.10792
						CHANNELS 3 Zrotation Xrotation Yrotation
						End site
						{
							OFFSET 0.00000 0.00000 0.00000
						}
					}
				}
			}
		}
	}
	JOINT RightUpLeg
	{
		OFFSET -9.98441 0.00000 0.00000
		CHANNELS 3 Zrotation Xrotation Yrotation
		JOINT RightLeg
		{
			OFFSET 0.00000 -42.11790 0.00000
			CHANNELS 3 Zrotation Xrotation Yrotation
			JOINT RightFoot
			{
				OFFSET 0.00000 -45.00020 -0.00001
				CHANNELS 3 Zrotation Xrotation Yrotation
				JOINT RightForeFoot
				{
					OFFSET 0.00000 -3.74820 0.00000
					CHANNELS 3 Zrotation Xrotation Yrotation
					JOINT RightToeBase
					{
						OFFSET 0.00000 0.06325 14.43120
						CHANNELS 3 Zrotation Xrotation Yrotation
						End site
						{
							OFFSET 0.00000 0.00000 0.00000
						}
					}
				}
			}
		}
	}
	JOINT LeftUpLeg
	{
		OFFSET 9.98441 0.00000 0.00000
		CHANNELS 3 Zrotation Xrotation Yrotation
		JOINT LeftLeg
		{
			OFFSET 0.00000 -42.11800 0.00000
			CHANNELS 3 Zrotation Xrotation Yrotation
			JOINT LeftFoot
			{
				OFFSET 0.00000 -45.00070 0.00000
				CHANNELS 3 Zrotation Xrotation Yrotation
				JOINT LeftForeFoot
				{
					OFFSET 0.00000 -3.74824 0.00000
					CHANNELS 3 Zrotation Xrotation Yrotation
					JOINT LeftToeBase
					{
						OFFSET 0.00000 0.06325 14.43110
						CHANNELS 3 Zrotation Xrotation Yrotation
						End site
						{
							OFFSET 0.00000 0.00000 0.00000
						}
					}
				}
			}
		}
	}
}
MOTION
Frames: 4
Frame Time: 0.050000
0.020697424044888627 0.027577949842486932 -0.01322708719598921 0.009370537634542115 -0.012140417004220303 -0.007331360801754687 -2.7717726796082247 0.49011244589224 -0.759027938823588 -0.9610798702810972 3.5193358464462814 0.31100196336741204 -0.8970942559835069 -1.9969410045589535 -2.5355771322301455 -0.8606942292402665 0.24751673665559104 -0.9815155444609893 -2.2248855736850155 12.366933042089377 5.990924975997299 -0.12150905426133662 0.07170538268033791 13.401725700581322 -1.8756396803918525 -14.629034066084506 1.1217357993881099 -2.79099796347133 1.428210583939072 -13.520931101503418 69.90295084462082 28.91373030638025 0.25970371955302035 8.116639943207527 -0.8973478797200741 84.39703262831576 17.91652979190808 -0.4401505041277164 -3.9477207530899476 4.540434724994099 -0.11527198049431114 -1.6304107629382605 -0.025989444017373024 -0.01832247932998161 -56.184720737272855 0.03315647073182041 -0.02027872189208104 -56.23377514698887 -38.72618851224391 -0.02315750197103147 0.03336250432925503 -0.0390544449417617 0.027983657325570253 -0.03941373609995749 0.030373096542950156 -0.004857219311470151 0.008035151133828394 -36.67132478973705 0.0076225675724103815 0.03650085079880426 0.03341989619634407 -0.024148102339668503 -0.005060996375220357 0.001640328886221456 0.007464537094675392 0.03973535911413495 -19.7516676062472 0.01924320483091825 0.007034579707226784 -0.0052943707260774955 -0.01014496126977182 -0.011547846177434824 0.027560360935179218 0.04799886963089267 -0.029491874175345822 24.01184499027487 -0.021751217472493933 -0.04953516684976685 28.884362765553156 0.04619363492584098 0.03787522888623917 28.84402242835569 0.0016726860032155713 -0.021602361457147286 9.80734769164311 2.1226810418062674 12.355965731234228 -69.08113633338314 15.819641926374015 -23.03572834751034 -20.371704561171207 -12.313652418016012 -77.72876013386475 -6.0010287561301725 -2.9423028126662634 0.17009716553264942 -0.44388193913462387 0.10272653164669089 -8.158449446773083 0.04646631434842868 0.0006538503017612704 44.52531502086765 -0.00862386083463202 0.027487324474314283 44.54813339401566 12.431220804157295 -0.03004867957354433 -0.0043393510673861106 -0.019724243498350256 -0.021937796765330787 0.03522812404964348 0.046874011283025235 0.004924718733813189 -0.04289756423785067 11.1035989368193 0.013245903089663868 0.03165466467236806 -0.006724704191299467 0.03890679060600541 -0.048984216432466365 0.007697382909822369 0.011831624053901386 0.04291971686610487 4.777281584843451 -0.004978578561055301 0.01943371024127832 0.0070931653448673155 -0.007897431993430655 0.006744283036783594 -0.015511443650448245 0.02393225179028811 -0.017958067912382008 -5.615458629457583 -0.027997885751241527 0.03204660522164232 -6.714179313835729 0.028801276303175805 0.012466479807567163 -6.731157769983189 0.008353178877606013 0.03079538920832851 -0.04135601172466729 -0.04988165733963344 0.028579395573238103 8.012247172995103 3.4750591022135295 -19.221054342101805 -0.040111311850780096 10.372320896739668 0.05873100932301993 -5.625165314171569 -15.66598408962484 3.1451545856543848 0.003978250097120376 -0.012995047010624927 -0.020420879896597348 -0.011196065203567876 4.7026010909916 -0.011296675277753885 12.418240426357407 -8.268273750325353 6.855662140061948 -0.021163058254432505 46.41318584594525 -0.024828397670704536 -4.342288295966539 -14.77537759169209 -3.815592980203494 -0.01697900179552345 -0.01635558092782613 0.028996649944237386 -0.024892880332323352 -10.746701774795024 0.009922143643985202 
0.007509781006289962 0.032372746969577954 0.030238066924634807 0.0036932912087197095 -0.030332695798357706 0.0019892813142539144 -2.6972805287611683 0.4673289185342483 -0.8037193117991417 -1.0401757117843708 3.5390304911638966 0.33706915519320174 -0.8827234655737408 -2.0100888723690296 -2.6933168837426678 -0.7837008055318372 0.32112233386587885 -1.0336554698686038 -2.2472485518700007 12.297868650150273 5.867138304778193 -0.11337172916781885 0.14251079851329557 13.34421613768954 -1.9123344152950756 -14.669178120046812 1.1323596779889762 -2.8341728359846368 1.4245232437364825 -13.416469618037164 69.8076372450734 28.411861839413923 0.6896892767409166 9.009252147997655 -0.518597995636059 83.35926677857107 18.115112890186428 -0.4790093670845622 -4.072293509717448 4.560524524096615 -0.10014077233334 -1.5976298055068812 0.004599922097310516 0.002576692093593634 -56.26404407672336 -0.007715996589024573 -0.014037663439813546 -56.204760677803904 -38.78060446195725 0.042695147856776874 0.01885515449019861 -0.02058313723972734 0.022014745028862522 -0.047067509505254713 -0.033195208104637754 -0.02572245504541994 0.022480786182915324 -36.71912721743296 -0.018308018188728344 -0.025384639164696864 0.04194667305193577 0.014812309172985644 -0.03100534993016539 -0.01770725501117475 -0.0015651605816431975 0.001079630922934398 -19.79534538551907 0.030681482098692914 -0.0031197756535885995 0.034490268017584154 -0.004641829414593718 0.01219698591761911 -0.030168161803878255 -0.01301555704062596 -0.0007229643995048022 24.09465258935823 -0.017429372807414828 0.04205685329864497 28.905240809704292 0.017218069935648297 -0.038859194921933876 28.822120083134386 0.03758280073866101 0.028389125856353357 9.992661617821469 2.151086585768747 12.194614195004053 -68.24214076082896 15.596320830902275 -24.622266675164138 -17.171147817243288 -13.197165533570388 -76.9288535157064 -5.826979016045912 -2.8517700696957338 0.5589183300789418 -0.47234075013285104 0.06219003053340502 -8.151067948867816 0.007323981104130173 -0.01674887944824562 44.55013778089108 -0.0219586763938584 -0.01078430545625268 44.59271291244535 12.459311999708174 0.049752852794268346 -0.02281286048065051 0.007339313873528526 0.018302750026416147 -0.03970834488061428 0.02229176716272553 -0.04977001076861478 0.010353949516845276 11.134187317886504 0.043661644056394534 -0.0013388633884284628 0.031064803858760617 0.04203224083733631 -0.018957212954449236 -0.015411973540089698 0.01597846356245036 -0.025306499670667938 4.728811338850077 -0.009707974258448842 0.014226082511762106 -0.018449376920138698 -0.019658616666625092 -0.026062266627197305 0.011201422214188874 0.045923622413153425 -0.01369647783942582 -5.578367498296796 0.019015725884923132 -0.01810949329878039 -6.704856163630983 0.0019162239542549187 -0.02451793237791002 -6.74110283113795 -0.027849634680675434 -0.023755033018904442 -0.02246121565649034 -0.011733505819094143 -0.042142592444021895 8.088918026507189 3.4501412960209006 -19.172888645456514 0.006763777753405038 10.36259839393576 -0.01298558775988037 -5.644694554703981 -15.683838381408174 3.1798159508963337 0.03229489291659601 0.028360150691680273 -0.003982872882087375 -0.0187518985507904 4.707569577301627 0.04265987741426307 12.434294465639066 -8.281275937731749 6.847417944566006 -0.03285957173964467 46.33828127093375 -0.03312504021996845 -4.309926628433723 -14.77912021882695 -3.8280201807009515 0.04144508121065522 -0.016774375298088912 0.025558662552872514 0.025251477235924056 -10.717607996405784 -0.04761899920989035 
-0.018789206028772057 0.007153110610707854 0.01748507434745683 -0.004562442194247121 -0.00037858142344361986 -0.012118436547899566 -2.6930151197062098 0.5640437912685713 -0.769771853878111 -0.9673037408393785 3.5038365952803 0.3159487431878765 -0.8787432847951397 -2.0328018514700004 -2.904611137873327 -0.7504891021115607 0.2859822566639415 -0.9910064666209131 -2.229358901477251 12.236280358161725 5.805666209795852 -0.1461757853688783 0.07259884089045807 13.015000695493988 -1.8662823364967875 -14.672056421837636 1.111553128994664 -2.816267938708194 1.4312240809167538 -13.191336314816073 69.608953484714 27.976606854412267 1.4412706743937251 10.778428709011115 -0.19448661649651705 83.05064846862567 18.600429681409032 -0.43050802700798224 -4.345771328648398 4.577761636244769 -0.1014029994833276 -1.6341355176469103 -0.022707787475516272 -0.010684951399513526 -56.2775462458783 -0.008122831561418492 -0.01299564364139738 -56.24419907888241 -38.76820290660407 -0.006201967800299589 -0.004318577463061121 0.011818947173300058 0.032644975435294946 -0.02804203177974408 -0.009438350284890125 0.02634620990292887 0.018702833916877267 -36.7232070637479 0.03887214115789755 -0.0488412760188741 0.017950711598598224 0.04607317821347347 0.0014277482789799678 0.023535723421998618 0.021764837350626207 0.021921094745097215 -19.78784716831908 0.039693359090449104 0.048736342855047465 0.019007809053155304 -0.0010244801619875804 0.028251180540301436 -0.03745203123797976 0.028848182572141255 0.0382228126376208 24.036759507885275 -0.0016583359578419233 0.04912090746809566 28.913075905433043 0.028280837408032295 0.02591120156760818 28.89919767066237 -0.006158244034343358 -0.010402648364984241 10.134611604471438 2.1534884078248595 11.927613031518684 -67.29382348481676 15.311096774237834 -26.266316695940393 -15.660029671380277 -13.687604964283274 -75.8513096950568 -6.260025038614387 -2.8004090045406724 1.091851455481319 -0.46004779683624203 0.09349012915113131 -8.171451994566073 -0.025730408949962116 -0.02897245941462353 44.613355713176986 -0.03149834034305799 0.033361087178741984 44.548135754845404 12.444587062317794 0.03993382046039613 0.03679864761059538 -0.02616328396912289 0.038602482032342976 -0.03260961215918098 -0.009047827219329528 -0.040869681204502704 0.016055906482326302 11.122176092215469 -0.01658153372701839 -0.037302395396895005 0.004859442815519189 -0.0018318072982673509 -0.023361586401231038 0.015912768161205532 0.03682239680268576 -0.004327755823764716 4.760008197587369 -0.04486242603627826 -0.015976578605470294 -0.008498044069371938 -0.031980960015369896 -0.03766981879557455 0.015257867980051519 0.04316348730288236 0.02101959202271202 -5.599380275761224 0.00042465500617318286 0.04862530583777844 -6.732505822222026 -0.029250353836958697 -0.043056370538762406 -6.743079223750168 -0.009862566394068614 0.033029873171502515 -0.017820800800219697 -0.007036011419581352 -0.0344089788680834 8.034925049981439 3.4796195042389333 -19.200188271148797 -0.014324549596946843 10.354950519566149 0.023803033780957918 -5.645940030608857 -15.640552608256327 3.160404964309764 0.031311411646045124 -0.031007434426306536 0.03783787713986468 0.01772088812900383 4.705801037124811 -0.017162863835676376 12.424024795470341 -8.2303932434454 6.879091122028358 -0.0482644548779444 46.381965245802334 -0.043971692330491724 -4.305737239020361 -14.789287189015354 -3.842608925080345 -0.024185457253398532 -0.0288534077106533 0.019430981530156773 -0.008945093625821405 -10.752516291613787 0.012339652818080148 
-0.04680308131497592 0.03259295326047978 -0.00641695793863338 -0.0008891178418532581 -0.03748277604402321 -0.03678881519785953 -2.6605989402154986 0.6362112298946542 -0.7925576461440105 -1.0173467419888027 3.451921564079583 0.32556326197679236 -0.8906559334107016 -2.0066530604757506 -3.016751270988363 -0.6173781566370915 0.28819602021803387 -1.0789607317752514 -2.262123583075953 12.179944653854392 5.607586962864495 -0.17143113010940667 0.04827539064915416 12.645989191016662 -1.900422350427074 -14.796193619497112 1.104277767861386 -2.9747031460591984 1.4591123142158944 -13.085666283091848 69.29247752067985 27.474616881785284 1.9340423473962371 11.808226704473181 0.10666536928909734 81.85554383308778 18.962662258099854 -0.4075248762958714 -4.520092594499667 4.530102624216727 -0.10068297187262386 -1.6314612437563687 -0.04209834964303356 0.03723182220198639 -56.27143406821329 -0.009284976833233217 -0.018143673271189386 -56.20031086075666 -38.76604050272596 -0.02499355246821485 0.032437377307303616 0.04056296389551051 -0.04058030562751181 -0.038757050226934875 0.03156832487436485 0.04986691373411604 -0.020598174345113362 -36.69663661169416 0.024318072998653448 0.02567168038200809 -0.034353747074036954 0.004058282116525366 0.01229929064294476 -0.045239335260836754 0.017466506249846116 0.03255153260732755 -19.799661047211142 0.021635696803724104 -0.028047848169841287 -0.007157157420699765 -0.004143558734480698 0.024298906350633313 -0.014431884779960795 -0.006265778763724673 0.02166676330626057 24.05312623081894 -0.04556424566934256 -0.003739065939373873 28.852425286546584 0.029096417083451582 -0.02361026174866104 28.83780381874351 -0.0096734870234545 0.02566991280848605 10.150396564924042 2.2060223134979426 11.797798707109802 -66.26787111040532 15.31188770798154 -27.406715563517995 -13.868163975924519 -14.220092499773406 -73.80488175985873 -6.849149929511304 -3.0054959220510216 1.8334014190682362 -0.428091226637464 0.09113888064703143 -8.105775886328777 0.04981863273988447 -0.02595134808076613 44.60332596516026 -0.04862627701038782 -0.015197520185171256 44.5358790267401 12.465332881946429 -0.016674097173523906 0.036215189219525504 -0.0033141617994631263 0.017923707714789287 -0.036211357593887224 0.016620437083826968 0.009253845151464291 -0.03543045662770564 11.103786506031613 -0.025320321328446298 0.030286294305742 0.04403846777592497 0.0323857986093671 0.04357562988518907 -0.0075478380349038796 -0.0392857174692526 0.03534423276568329 4.723039185384278 0.009283271885606315 -0.043142790210574544 -0.028143185827776255 0.004642473307137745 -0.018813370594488513 0.018183518176427885 -0.000910656151939237 -0.016113254619664726 -5.647771982684419 -0.03470547514476797 -0.012601074693927999 -6.736634746150217 0.04088119224778486 0.024416656190149523 -6.676464134457864 -0.04198975334876102 0.015525242183824317 -0.0340440679415819 0.037014305750865006 -0.006393055148098584 7.994831015312178 3.4617617881814207 -19.259130116784974 -0.008574197388166706 10.383489182808168 -0.02201305127979848 -5.666268543793735 -15.653222702736905 3.175239530111474 0.03471821695020324 0.029878671087697907 0.006546075454282446 -0.005586385424093579 4.714772247143245 -0.04666772595765748 12.483620967036005 -8.214730223012388 6.8603239771020545 0.028494122941670346 46.4292199816307 -0.009154819879973254 -4.3317788869779 -14.738317234127079 -3.8718268881269853 -0.0007246820007004414 -0.04749624808398042 -0.04548518690432216 -0.034911231521491594 -10.698647598910565 -0.04354901122003319 
